<?xml version="1.0" encoding="UTF-8"?> <svg xmlns="http://www.w3.org/2000/svg" width="481" height="865" viewBox="0 0 481 865" fill="none"><g clip-path="url(#clip0_815_10357)"><path d="M172.269 36.4664C174.85 36.1905 177.468 36.0469 180.123 36.0469L246.551 36.0469C286.713 36.0469 319.27 68.5953 319.27 108.746C319.27 133.84 306.551 155.966 287.209 169.031" stroke="#7CB3C4" stroke-width="10" stroke-linecap="round" stroke-linejoin="round"></path><path d="M93.4305 750.986C93.1545 748.406 93.0109 745.788 93.0109 743.134L93.0109 676.723C93.0109 636.572 125.568 604.023 165.729 604.023C190.829 604.023 212.961 616.739 226.029 636.076" stroke="#B3C1D6" stroke-width="10" stroke-linecap="round" stroke-linejoin="round"></path><path d="M219.791 348.621C217.918 348.42 267.719 348.316 265.791 348.316L185.141 348.316C155.979 348.316 132.337 371.952 132.337 401.106" stroke="#7CB3C4" stroke-width="10" stroke-linecap="round" stroke-linejoin="round"></path><path d="M38.3646 481.489C40.2383 481.691 22.8525 481.794 24.78 481.794L73.0149 481.794C102.177 481.794 125.818 458.158 125.818 429.004" stroke="#4690FF" stroke-width="10" stroke-linecap="round" stroke-linejoin="round"></path><path d="M15.3214 89.8874C17.4105 90.1117 -1.98129 89.8874 0.166125 89.8874L53.9726 89.8874C86.5024 89.8874 112.875 63.5238 112.875 31" stroke="#4690FF" stroke-width="10" stroke-linecap="round" stroke-linejoin="round"></path><path d="M386.737 612.438C384.863 612.236 402.249 612.133 400.321 612.133L352.086 612.133C322.925 612.133 299.283 635.769 299.283 664.923" stroke="#7CB3C4" stroke-width="10" stroke-linecap="round" stroke-linejoin="round"></path><path d="M205.31 745.309C207.184 745.511 189.798 745.614 191.725 745.614L239.96 745.614C269.122 745.614 292.764 721.979 292.764 692.824" stroke="#7CB3C4" stroke-width="10" stroke-linecap="round" stroke-linejoin="round"></path><path d="M63.2363 555.672C65.5677 555.923 4.67268 556.051 7.06916 556.051L106.346 556.051C142.63 556.051 172.043 526.646 172.043 490.371" stroke="#7CB3C4" stroke-width="10" stroke-linecap="round" stroke-linejoin="round"></path><path d="M480.455 828.084C478.582 828.286 482.908 828.39 480.983 828.39L445.805 828.39C426.202 828.39 409.095 817.711 399.984 801.855" stroke="#B3C1D6" stroke-width="10" stroke-linecap="round" stroke-linejoin="round"></path><path d="M246.549 181.451L180.12 181.451C178.808 181.451 177.504 181.417 176.209 181.348" stroke="#4690FF" stroke-width="10" stroke-linecap="round" stroke-linejoin="round"></path><path d="M216.2 69.4375L246.919 69.4375C267 69.4375 283.279 85.7129 283.279 105.788C283.279 125.864 267 142.139 246.919 142.139L163.653 142.139" stroke="#B3C1D6" stroke-width="10" stroke-linecap="round" stroke-linejoin="round"></path><path d="M244.025 461.802C246.605 461.526 314.795 461.383 317.447 461.383L383.876 461.383C424.037 461.383 456.594 493.931 456.594 534.082C456.594 559.176 443.875 581.302 424.533 594.367" stroke="#4690FF" stroke-width="10" stroke-linecap="round" stroke-linejoin="round"></path><path d="M340.96 498.359L371.679 498.359C391.76 498.359 408.039 514.635 408.039 534.71C408.039 554.786 391.76 571.061 371.679 571.061L246.716 571.061" stroke="#B3C1D6" stroke-width="10" stroke-linecap="round" stroke-linejoin="round"></path><path d="M29.9411 328.35C29.7302 326.378 29.6202 238.738 29.6202 236.71L29.6202 185.95C29.6202 155.261 54.505 130.383 85.2016 130.383C104.387 130.383 121.301 140.101 131.289 154.882" stroke="#7CB3C4" stroke-width="10" stroke-linecap="round" stroke-linejoin="round"></path><path d="M67.1065 226.332L67.1065 193.626C67.1065 180.097 78.0769 169.129 91.6099 169.129C105.143 169.129 116.113 180.097 116.113 193.626L116.113 249.73" stroke="#B3C1D6" stroke-width="10" stroke-linecap="round" stroke-linejoin="round"></path><path d="M116.113 285.194L116.113 300.653C116.113 314.182 105.143 325.15 91.6099 325.15C78.0769 325.15 67.1065 314.182 67.1065 300.653L67.1065 213.941" stroke="#B3C1D6" stroke-width="10" stroke-linecap="round" stroke-linejoin="round"></path><path d="M4.53993 591.16C28.534 591.16 47.9863 610.608 47.9863 634.596L47.9863 734.067" stroke="#7CB3C4" stroke-width="10" stroke-linecap="round" stroke-linejoin="round"></path><path d="M93.4492 776.424L93.4492 792.928C93.4492 807.373 81.7361 819.081 67.2898 819.081C52.8414 819.081 41.1305 807.371 41.1305 792.928L41.1305 752.566" stroke="#B3C1D6" stroke-width="10" stroke-linecap="round" stroke-linejoin="round"></path><path d="M381.037 278.483L381.037 198.309C381.037 185.2 370.408 174.574 357.297 174.574L349.266 174.574C336.154 174.574 325.525 185.2 325.525 198.309L325.525 278.483C325.525 291.591 336.154 302.217 349.266 302.217L357.297 302.217C370.408 302.217 381.037 291.591 381.037 278.483Z" stroke="#4690FF" stroke-width="10" stroke-linecap="round" stroke-linejoin="round"></path><path d="M389.432 697.526L370.043 697.526C356.932 697.526 346.302 686.9 346.302 673.792L346.302 673.453C346.302 660.345 356.932 649.719 370.043 649.719L432.547 649.719C445.658 649.719 456.287 660.345 456.287 673.453L456.287 673.792C456.287 686.9 445.658 697.526 432.547 697.526L413.66 697.526" stroke="#7CB3C4" stroke-width="10" stroke-linecap="round" stroke-linejoin="round"></path><path d="M190.485 236.023L245.142 236.023C258.253 236.023 268.883 246.65 268.883 259.758L268.883 267.784C268.883 280.892 258.253 291.519 245.142 291.519L190.485 291.519C177.374 291.519 166.745 280.892 166.745 267.784L166.745 259.758C166.745 246.65 177.374 236.023 190.485 236.023Z" stroke="#4690FF" stroke-width="10" stroke-linecap="round" stroke-linejoin="round"></path><path d="M41.4138 417.531C41.4138 430.863 52.2249 441.672 65.5604 441.672C78.8959 441.672 89.707 430.863 89.707 417.531C89.707 404.199 78.8959 393.391 65.5604 393.391L5.27354 393.391" stroke="#7CB3C4" stroke-width="10" stroke-linecap="round" stroke-linejoin="round"></path><path d="M166.555 705.861C185.608 705.861 201.055 690.418 201.055 671.37C201.055 652.322 185.608 636.879 166.555 636.879C147.502 636.879 132.055 652.322 132.055 671.37L132.055 848.584" stroke="#4690FF" stroke-width="10" stroke-linecap="round" stroke-linejoin="round"></path><path d="M275.78 865.821C275.558 863.742 275.441 861.631 275.441 859.493L275.441 805.967C275.441 773.605 301.681 747.371 334.052 747.371C354.283 747.371 372.119 757.619 382.652 773.205" stroke="#B3C1D6" stroke-width="10" stroke-linecap="round" stroke-linejoin="round"></path><path d="M337.129 836.517C352.486 836.517 364.936 824.071 364.936 808.717C364.936 793.364 352.486 780.918 337.129 780.918C321.772 780.918 309.323 793.364 309.323 808.717L309.323 866.528" stroke="#4690FF" stroke-width="10" stroke-linecap="round" stroke-linejoin="round"></path><path d="M374.365 91.1578L366.543 91.1578C350.6 91.1578 337.678 78.2384 337.678 62.2996C337.678 46.3607 350.6 33.4414 366.543 33.4414L429.828 33.4414C445.771 33.4414 458.693 46.3607 458.693 62.2996C458.693 78.2384 445.771 91.1578 429.828 91.1578" stroke="#B3C1D6" stroke-width="10" stroke-linecap="round" stroke-linejoin="round"></path><path d="M460.262 163.281L460.262 171.101C460.262 187.04 447.339 199.959 431.396 199.959C415.453 199.959 402.531 187.04 402.531 171.101L402.531 65.4336" stroke="#4690FF" stroke-width="10" stroke-linecap="round" stroke-linejoin="round"></path><path d="M288.239 379.387C288.239 354.715 308.245 334.711 332.926 334.711C357.607 334.711 377.613 354.712 377.613 379.387C377.613 404.061 357.607 424.063 332.926 424.063L203.677 424.063" stroke="#7CB3C4" stroke-width="10" stroke-linecap="round" stroke-linejoin="round"></path><path d="M316.18 378.926C316.18 388.734 324.132 396.684 333.942 396.684C343.752 396.684 351.705 388.734 351.705 378.926C351.705 369.119 343.752 361.168 333.942 361.168C324.132 361.168 316.18 369.119 316.18 378.926Z" stroke="#4690FF" stroke-width="10" stroke-linecap="round" stroke-linejoin="round"></path><path d="M317.625 498.848L274.093 498.848" stroke="#B3C1D6" stroke-width="10" stroke-linecap="round" stroke-linejoin="round"></path><path d="M185.459 775.895L185.459 865.179" stroke="#4690FF" stroke-width="10" stroke-linecap="round" stroke-linejoin="round"></path><path d="M456.746 324.312L456.746 426.608" stroke="#4690FF" stroke-width="10" stroke-linecap="round" stroke-linejoin="round"></path><path d="M441.627 284.32C454.962 284.32 465.773 273.512 465.773 260.18C465.773 246.847 454.962 236.039 441.627 236.039C428.291 236.039 417.48 246.847 417.48 260.18L417.48 384.215" stroke="#7CB3C4" stroke-width="10" stroke-linecap="round" stroke-linejoin="round"></path></g><defs><clipPath id="clip0_815_10357"><rect width="481" height="865" fill="white"></rect></clipPath></defs></svg> 