<?xml version="1.0" encoding="UTF-8"?> <svg xmlns="http://www.w3.org/2000/svg" width="146" height="314" viewBox="0 0 146 314" fill="none"><g clip-path="url(#clip0_1775_4774)"><path d="M62.7028 311.867C63.6733 311.97 64.6582 312.024 65.6566 312.024L90.6401 312.024C105.745 312.024 117.989 299.832 117.989 284.792C117.989 275.392 113.206 267.104 105.931 262.21" stroke="white" stroke-width="4" stroke-linecap="round" stroke-linejoin="round"></path><path d="M33.0525 44.1819C32.9487 45.1483 32.8947 46.1289 32.8947 47.123L32.8947 71.9995C32.8947 87.0394 45.1392 99.2314 60.2438 99.2314C69.6839 99.2314 78.0076 94.4686 82.9226 87.2251" stroke="#B3C1D6" stroke-width="4" stroke-linecap="round" stroke-linejoin="round"></path><path d="M80.5765 194.94C79.8718 195.016 98.6019 195.054 97.8769 195.054L67.5446 195.054C56.5769 195.054 47.6853 186.201 47.6853 175.28" stroke="white" stroke-width="4" stroke-linecap="round" stroke-linejoin="round"></path><path d="M12.3422 145.17C13.0469 145.095 6.50817 145.056 7.23311 145.056L25.3741 145.056C36.3418 145.056 45.2334 153.909 45.2334 164.83" stroke="#E3ECFA" stroke-width="4" stroke-linecap="round" stroke-linejoin="round"></path><path d="M143.363 96.08C142.658 96.1557 149.197 96.1943 148.472 96.1943L130.331 96.1943C119.363 96.1943 110.472 87.3408 110.472 76.4202" stroke="white" stroke-width="4" stroke-linecap="round" stroke-linejoin="round"></path><path d="M75.1302 46.3089C75.8349 46.2332 69.2962 46.1946 70.0211 46.1946L88.1622 46.1946C99.1298 46.1946 108.021 55.0481 108.021 65.9688" stroke="white" stroke-width="4" stroke-linecap="round" stroke-linejoin="round"></path><path d="M21.6953 117.382C22.5721 117.288 -0.330334 117.24 0.570978 117.24L37.9088 117.24C51.5551 117.24 62.6172 128.255 62.6172 141.843" stroke="white" stroke-width="4" stroke-linecap="round" stroke-linejoin="round"></path><path d="M90.6395 257.559L65.6559 257.559C65.1622 257.559 64.6719 257.572 64.185 257.598" stroke="#E3ECFA" stroke-width="4" stroke-linecap="round" stroke-linejoin="round"></path><path d="M79.2269 299.517L90.7803 299.517C98.3326 299.517 104.455 293.421 104.455 285.901C104.455 278.381 98.3326 272.284 90.7803 272.284L59.4639 272.284" stroke="#B3C1D6" stroke-width="4" stroke-linecap="round" stroke-linejoin="round"></path><path d="M89.6908 152.544C90.6613 152.647 116.307 152.701 117.305 152.701L142.288 152.701C157.393 152.701 169.638 140.509 169.638 125.469C169.638 116.07 164.854 107.782 157.58 102.888" stroke="white" stroke-width="4" stroke-linecap="round" stroke-linejoin="round"></path><path d="M126.149 138.852L137.702 138.852C145.254 138.852 151.377 132.755 151.377 125.235C151.377 117.715 145.254 111.619 137.702 111.619L90.7037 111.619" stroke="#B3C1D6" stroke-width="4" stroke-linecap="round" stroke-linejoin="round"></path><path d="M9.17328 202.533C9.09396 203.272 9.0526 236.1 9.0526 236.86L9.0526 255.874C9.0526 267.369 18.4117 276.688 29.9566 276.688C37.1722 276.688 43.5337 273.048 47.29 267.511" stroke="white" stroke-width="4" stroke-linecap="round" stroke-linejoin="round"></path><path d="M23.1517 240.748L23.1517 252.999C23.1517 258.067 27.2776 262.175 32.3673 262.175C37.4571 262.175 41.583 258.067 41.583 252.999L41.583 231.983" stroke="#B3C1D6" stroke-width="4" stroke-linecap="round" stroke-linejoin="round"></path><path d="M41.583 218.698L41.583 212.908C41.583 207.84 37.4571 203.731 32.3673 203.731C27.2776 203.731 23.1517 207.84 23.1517 212.908L23.1517 245.388" stroke="#B3C1D6" stroke-width="4" stroke-linecap="round" stroke-linejoin="round"></path><path d="M-0.378179 104.05C8.64592 104.05 15.9619 96.7651 15.9619 87.7797L15.9619 50.5195" stroke="white" stroke-width="4" stroke-linecap="round" stroke-linejoin="round"></path><path d="M33.0605 34.6531L33.0605 28.471C33.0605 23.0602 28.6553 18.6746 23.2221 18.6746C17.788 18.6746 13.3836 23.0611 13.3836 28.471L13.3836 43.5898" stroke="#B3C1D6" stroke-width="4" stroke-linecap="round" stroke-linejoin="round"></path><path d="M141.22 221.212L141.22 251.244C141.22 256.154 137.222 260.134 132.291 260.134L129.271 260.134C124.339 260.134 120.342 256.154 120.342 251.244L120.342 221.212C120.342 216.302 124.339 212.321 129.271 212.321L132.291 212.321C137.222 212.321 141.22 216.302 141.22 221.212Z" stroke="white" stroke-width="4" stroke-linecap="round" stroke-linejoin="round"></path><path d="M144.378 64.2064L137.085 64.2064C132.154 64.2064 128.156 68.187 128.156 73.0969L128.156 73.2238C128.156 78.1337 132.154 82.1143 137.085 82.1143L160.593 82.1143C165.524 82.1143 169.521 78.1337 169.521 73.2238L169.521 73.0969C169.521 68.187 165.524 64.2064 160.593 64.2064L153.489 64.2064" stroke="white" stroke-width="4" stroke-linecap="round" stroke-linejoin="round"></path><path d="M69.554 237.117L90.1103 237.117C95.0414 237.117 99.0391 233.137 99.0391 228.227L99.0391 225.22C99.0391 220.31 95.0414 216.33 90.1103 216.33L69.554 216.33C64.6229 216.33 60.6252 220.31 60.6252 225.22L60.6252 228.227C60.6252 233.137 64.6229 237.117 69.554 237.117Z" stroke="#E3ECFA" stroke-width="4" stroke-linecap="round" stroke-linejoin="round"></path><path d="M13.4892 169.128C13.4892 164.134 17.5553 160.085 22.5707 160.085C27.5862 160.085 31.6522 164.134 31.6522 169.128C31.6522 174.122 27.5862 178.17 22.5707 178.17L-0.103031 178.17" stroke="white" stroke-width="4" stroke-linecap="round" stroke-linejoin="round"></path><path d="M101.634 1.16741C101.55 1.94638 101.506 2.73713 101.506 3.53794L101.506 23.5877C101.506 35.71 111.375 45.5366 123.55 45.5366C131.158 45.5366 137.867 41.6981 141.828 35.8596" stroke="#B3C1D6" stroke-width="4" stroke-linecap="round" stroke-linejoin="round"></path><path d="M124.706 12.1445C130.482 12.1445 135.164 16.8065 135.164 22.5576C135.164 28.3086 130.482 32.9707 124.706 32.9707C118.93 32.9707 114.248 28.3087 114.248 22.5576L114.248 0.902784" stroke="#B3C1D6" stroke-width="4" stroke-linecap="round" stroke-linejoin="round"></path><path d="M138.712 291.381L135.77 291.381C129.774 291.381 124.914 296.22 124.914 302.191C124.914 308.161 129.774 313 135.77 313L159.571 313C165.568 313 170.428 308.161 170.428 302.191C170.428 296.22 165.568 291.381 159.571 291.381" stroke="#B3C1D6" stroke-width="4" stroke-linecap="round" stroke-linejoin="round"></path><path d="M106.318 183.416C106.318 192.657 113.843 200.15 123.125 200.15C132.407 200.15 139.932 192.658 139.932 183.416C139.932 174.173 132.407 166.681 123.125 166.681L74.5147 166.681" stroke="white" stroke-width="4" stroke-linecap="round" stroke-linejoin="round"></path><path d="M116.828 183.588C116.828 179.915 119.819 176.936 123.509 176.936C127.199 176.936 130.189 179.915 130.189 183.588C130.189 187.262 127.199 190.24 123.509 190.24C119.819 190.24 116.828 187.262 116.828 183.588Z" stroke="white" stroke-width="4" stroke-linecap="round" stroke-linejoin="round"></path><path d="M117.372 138.668L101 138.668" stroke="#B3C1D6" stroke-width="4" stroke-linecap="round" stroke-linejoin="round"></path><path d="M57.8066 44.6807L57.8066 11.2363" stroke="white" stroke-width="4" stroke-linecap="round" stroke-linejoin="round"></path></g><defs><clipPath id="clip0_1775_4774"><rect width="313" height="146" fill="white" transform="matrix(-4.37114e-08 -1 -1 4.37114e-08 146 313.5)"></rect></clipPath></defs></svg> 