<?xml version="1.0" encoding="UTF-8"?> <svg xmlns="http://www.w3.org/2000/svg" width="116" height="292" viewBox="0 0 116 292" fill="none"><g clip-path="url(#clip0_1775_4814)"><path d="M7.95097 289.533C8.84899 289.629 9.76028 289.679 10.6841 289.679L33.8013 289.679C47.7775 289.679 59.1073 278.327 59.1073 264.324C59.1073 255.572 54.6813 247.855 47.9501 243.299" stroke="white" stroke-width="4" stroke-linecap="round" stroke-linejoin="round"></path><path d="M-19.4854 40.2968C-19.5814 41.1965 -19.6314 42.1096 -19.6314 43.0351L-19.6314 66.1972C-19.6314 80.2005 -8.3016 91.5522 5.67462 91.5522C14.4096 91.5522 22.1114 87.1176 26.6592 80.3734" stroke="#B3C1D6" stroke-width="4" stroke-linecap="round" stroke-linejoin="round"></path><path d="M24.4877 180.664C23.8356 180.735 41.1665 180.771 40.4957 180.771L12.4293 180.771C2.28095 180.771 -5.94641 172.527 -5.94641 162.359" stroke="white" stroke-width="4" stroke-linecap="round" stroke-linejoin="round"></path><path d="M82.5848 88.6177C81.9328 88.6881 87.9831 88.7241 87.3123 88.7241L70.5265 88.7241C60.3781 88.7241 52.1508 80.4808 52.1508 70.3128" stroke="white" stroke-width="4" stroke-linecap="round" stroke-linejoin="round"></path><path d="M19.4489 42.2771C20.1009 42.2067 14.0506 42.1707 14.7214 42.1707L31.5072 42.1707C41.6556 42.1707 49.8829 50.414 49.8829 60.582" stroke="white" stroke-width="4" stroke-linecap="round" stroke-linejoin="round"></path><path d="M-29.9938 108.452C-29.1824 108.365 -50.374 108.32 -49.54 108.32L-14.9915 108.32C-2.36463 108.32 7.87115 118.576 7.87115 131.227" stroke="white" stroke-width="4" stroke-linecap="round" stroke-linejoin="round"></path><path d="M115.2 13.4069C114.548 13.3365 116.054 13.3005 115.384 13.3005L103.142 13.3005C96.32 13.3005 90.3665 17.0247 87.1961 22.5547" stroke="#B3C1D6" stroke-width="4" stroke-linecap="round" stroke-linejoin="round"></path><path d="M33.7999 238.967L10.6827 238.967C10.2258 238.967 9.77215 238.979 9.32158 239.003" stroke="white" stroke-width="4" stroke-linecap="round" stroke-linejoin="round"></path><path d="M23.2396 278.034L33.9299 278.034C40.918 278.034 46.5833 272.358 46.5833 265.356C46.5833 258.355 40.918 252.678 33.9299 252.678L4.95291 252.678" stroke="#B3C1D6" stroke-width="4" stroke-linecap="round" stroke-linejoin="round"></path><path d="M32.9211 141.191C33.8191 141.287 57.5493 141.337 58.4723 141.337L81.5895 141.337C95.5658 141.337 106.896 129.985 106.896 115.982C106.896 107.23 102.47 99.5132 95.7383 94.9565" stroke="#B3C1D6" stroke-width="4" stroke-linecap="round" stroke-linejoin="round"></path><path d="M66.6564 128.441L77.3467 128.441C84.3348 128.441 90.0001 122.765 90.0001 115.763C90.0001 108.762 84.3348 103.086 77.3467 103.086L33.8594 103.086" stroke="#B3C1D6" stroke-width="4" stroke-linecap="round" stroke-linejoin="round"></path><path d="M80.6015 205.126L80.6015 233.088C80.6015 237.66 76.9026 241.366 72.3398 241.366L69.545 241.366C64.9822 241.366 61.2833 237.66 61.2833 233.088L61.2833 205.126C61.2833 200.554 64.9822 196.848 69.545 196.848L72.3398 196.848C76.9026 196.848 80.6015 200.554 80.6015 205.126Z" stroke="white" stroke-width="4" stroke-linecap="round" stroke-linejoin="round"></path><path d="M83.5235 58.9411L76.7759 58.9411C72.2133 58.9411 68.5142 62.6473 68.5142 67.2189L68.5142 67.337C68.5142 71.9085 72.2133 75.6147 76.7759 75.6147L98.5274 75.6147C103.09 75.6147 106.789 71.9085 106.789 67.337L106.789 67.2189C106.789 62.6473 103.09 58.9411 98.5274 58.9411L91.9547 58.9411" stroke="white" stroke-width="4" stroke-linecap="round" stroke-linejoin="round"></path><path d="M14.2889 219.935L33.3096 219.935C37.8723 219.935 41.5713 216.228 41.5713 211.657L41.5713 208.857C41.5713 204.286 37.8723 200.58 33.3096 200.58L14.2889 200.58C9.72622 200.58 6.02718 204.286 6.02718 208.857L6.02718 211.657C6.02718 216.228 9.72622 219.935 14.2889 219.935Z" stroke="#B3C1D6" stroke-width="4" stroke-linecap="round" stroke-linejoin="round"></path><path d="M5.96178 56.0351C12.5922 56.0351 17.9678 61.4211 17.9678 68.0644C17.9678 74.7077 12.5922 80.0938 5.96178 80.0938C-0.66868 80.0938 -6.04427 74.7077 -6.04427 68.0644L-6.04427 6.25834" stroke="white" stroke-width="4" stroke-linecap="round" stroke-linejoin="round"></path><path d="M43.9723 0.246856C43.895 0.972136 43.8544 1.70839 43.8544 2.45401L43.8544 21.1219C43.8544 32.4088 52.986 41.5581 64.251 41.5581C71.2914 41.5581 77.4987 37.9841 81.1641 32.548" stroke="#B3C1D6" stroke-width="4" stroke-linecap="round" stroke-linejoin="round"></path><path d="M65.3224 10.467C70.6667 10.467 74.9991 14.8077 74.9991 20.1625C74.9991 25.5172 70.6668 29.8579 65.3224 29.8579C59.978 29.8579 55.6457 25.5172 55.6457 20.1625L55.6457 0.000132273" stroke="white" stroke-width="4" stroke-linecap="round" stroke-linejoin="round"></path><path d="M78.2817 270.458L75.5595 270.458C70.0114 270.458 65.5143 274.964 65.5143 280.523C65.5143 286.082 70.0114 290.588 75.5595 290.588L97.5827 290.588C103.131 290.588 107.628 286.082 107.628 280.523C107.628 274.964 103.131 270.458 97.5827 270.458" stroke="#B3C1D6" stroke-width="4" stroke-linecap="round" stroke-linejoin="round"></path><path d="M108.174 245.304L108.174 242.577C108.174 237.018 103.677 232.512 98.1286 232.512C92.5805 232.512 88.0834 237.018 88.0834 242.577L88.0834 279.43" stroke="white" stroke-width="4" stroke-linecap="round" stroke-linejoin="round"></path><path d="M48.3078 169.934C48.3078 178.539 55.2701 185.516 63.859 185.516C72.4479 185.516 79.4103 178.54 79.4103 169.934C79.4103 161.329 72.4479 154.353 63.859 154.353L18.8803 154.353" stroke="white" stroke-width="4" stroke-linecap="round" stroke-linejoin="round"></path><path d="M58.0319 170.095C58.0319 166.675 60.7994 163.902 64.2133 163.902C67.6272 163.902 70.3948 166.675 70.3948 170.095C70.3948 173.516 67.6272 176.289 64.2133 176.289C60.7994 176.289 58.0319 173.516 58.0319 170.095Z" stroke="#B3C1D6" stroke-width="4" stroke-linecap="round" stroke-linejoin="round"></path><path d="M58.5352 128.271L43.3861 128.271" stroke="#B3C1D6" stroke-width="4" stroke-linecap="round" stroke-linejoin="round"></path><path d="M12.5411 31.6094L12.5411 0.470048" stroke="white" stroke-width="4" stroke-linecap="round" stroke-linejoin="round"></path><path d="M106.949 189.143L106.949 153.465" stroke="#B3C1D6" stroke-width="4" stroke-linecap="round" stroke-linejoin="round"></path><path d="M101.687 203.09C106.328 203.09 110.09 206.86 110.09 211.509C110.09 216.159 106.328 219.929 101.687 219.929C97.0461 219.929 93.2838 216.159 93.2838 211.509L93.2838 168.25" stroke="white" stroke-width="4" stroke-linecap="round" stroke-linejoin="round"></path></g><defs><clipPath id="clip0_1775_4814"><rect width="291" height="116" fill="white" transform="matrix(-4.37114e-08 -1 -1 4.37114e-08 116 291.5)"></rect></clipPath></defs></svg> 