<svg width="102" height="37" viewBox="0 0 102 37" fill="none" xmlns="http://www.w3.org/2000/svg">
<path d="M0 9.7384L3.04574 0.969857H5.51706L8.56279 9.7384H6.71932L4.38159 2.31171H4.19457L1.83011 9.7384H0ZM1.61638 7.93154V6.74911H7.17351V7.93154H1.61638ZM10.6983 9.7384L8.30709 2.80329H10.1773L11.7937 8.39654H11.994L13.6104 2.80329H15.4272L13.0226 9.7384H10.6983ZM17.9907 9.91111C17.6077 9.91111 17.2648 9.84025 16.9621 9.69854C16.6593 9.54797 16.4188 9.32654 16.2407 9.03425C16.0715 8.74197 15.9869 8.37882 15.9869 7.94482C15.9869 7.58168 16.0537 7.27168 16.1873 7.01482C16.3298 6.75797 16.539 6.54982 16.8151 6.3904C17.0912 6.22211 17.4341 6.08482 17.8437 5.97854C18.2534 5.8634 18.7343 5.76597 19.2864 5.68625C19.5892 5.64197 19.8341 5.59768 20.0211 5.5534C20.2171 5.50911 20.3596 5.44268 20.4486 5.35411C20.5377 5.25671 20.5822 5.115 20.5822 4.929C20.5822 4.65443 20.4842 4.41971 20.2883 4.22486C20.1013 4.02114 19.7941 3.91929 19.3666 3.91929C19.1083 3.91929 18.859 3.96357 18.6185 4.05214C18.387 4.14072 18.1866 4.28243 18.0174 4.47729C17.8482 4.66329 17.7324 4.91129 17.6701 5.22129L16.1605 4.75629C16.2585 4.402 16.401 4.09643 16.588 3.83957C16.775 3.57386 17.0066 3.348 17.2827 3.162C17.5587 2.976 17.8749 2.83871 18.2311 2.75014C18.5873 2.66157 18.9792 2.61729 19.4067 2.61729C20.0568 2.61729 20.5911 2.72357 21.0097 2.93614C21.4282 3.13986 21.7399 3.46314 21.9448 3.906C22.1496 4.34 22.252 4.90243 22.252 5.59325V6.89525C22.252 7.1964 22.2565 7.51082 22.2654 7.83854C22.2832 8.1574 22.301 8.48068 22.3188 8.8084C22.3455 9.12725 22.3767 9.43725 22.4123 9.7384H20.9028C20.8672 9.4904 20.836 9.22468 20.8093 8.94125C20.7826 8.65782 20.7603 8.36997 20.7425 8.07768H20.5288C20.4041 8.41425 20.226 8.72425 19.9944 9.00768C19.7629 9.28225 19.4779 9.50368 19.1395 9.67197C18.81 9.8314 18.427 9.91111 17.9907 9.91111ZM18.6586 8.67554C18.8367 8.67554 19.0148 8.64454 19.1929 8.58254C19.3799 8.52054 19.5625 8.42754 19.7406 8.30354C19.9187 8.17954 20.0835 8.02897 20.2349 7.85182C20.3863 7.66582 20.5154 7.44882 20.6223 7.20082L20.5956 6.0184L20.9162 6.07154C20.7648 6.19554 20.5778 6.29297 20.3551 6.36382C20.1325 6.43468 19.8965 6.48782 19.6471 6.52325C19.4067 6.55868 19.1618 6.60297 18.9124 6.65611C18.6719 6.7004 18.4538 6.7624 18.2578 6.84211C18.0619 6.91297 17.9061 7.01925 17.7903 7.16097C17.6745 7.29382 17.6166 7.47982 17.6166 7.71897C17.6166 8.02011 17.7146 8.25482 17.9105 8.42311C18.1064 8.5914 18.3558 8.67554 18.6586 8.67554ZM24.0711 9.7384V0.305571H25.7276V9.7384H24.0711ZM27.6195 9.7384V2.79H29.3026V9.7384H27.6195ZM28.461 1.70057C28.1226 1.70057 27.8599 1.62971 27.6729 1.488C27.4948 1.33743 27.4057 1.12486 27.4057 0.850286C27.4057 0.575714 27.4948 0.367571 27.6729 0.225857C27.8599 0.0752857 28.1226 0 28.461 0C28.8173 0 29.0844 0.070857 29.2626 0.212571C29.4407 0.354286 29.5297 0.566857 29.5297 0.850286C29.5297 1.12486 29.4362 1.33743 29.2492 1.488C29.0711 1.62971 28.8084 1.70057 28.461 1.70057ZM34.3465 9.91111C33.7854 9.91111 33.2822 9.8314 32.837 9.67197C32.4006 9.51254 32.031 9.28225 31.7282 8.98111C31.4254 8.67111 31.1939 8.29911 31.0336 7.86511C30.8733 7.43111 30.7931 6.93954 30.7931 6.3904C30.7931 5.84125 30.8688 5.33643 31.0202 4.87586C31.1805 4.41529 31.4076 4.01671 31.7015 3.68014C31.9954 3.34357 32.3516 3.08229 32.7702 2.89629C33.1976 2.71029 33.683 2.61729 34.2262 2.61729C34.7339 2.61729 35.188 2.70143 35.5888 2.86971C35.9896 3.038 36.328 3.29043 36.604 3.627C36.8801 3.95471 37.085 4.36657 37.2185 4.86257C37.3521 5.34971 37.3966 5.91654 37.3521 6.56311L31.8885 6.60297V5.63311L36.3769 5.59325L35.7892 6.13797C35.8426 5.63311 35.8025 5.22129 35.669 4.90243C35.5354 4.57471 35.3439 4.33557 35.0945 4.185C34.8452 4.02557 34.5602 3.94586 34.2396 3.94586C33.8745 3.94586 33.5539 4.04329 33.2778 4.23814C33.0017 4.42414 32.788 4.69871 32.6366 5.06186C32.4941 5.41611 32.4228 5.85011 32.4228 6.36382C32.4228 7.1344 32.592 7.71011 32.9305 8.09097C33.2778 8.47182 33.7498 8.66225 34.3465 8.66225C34.6136 8.66225 34.8363 8.63125 35.0144 8.56925C35.2014 8.4984 35.3573 8.40982 35.4819 8.30354C35.6066 8.1884 35.7046 8.05997 35.7758 7.91825C35.856 7.77654 35.9183 7.62597 35.9628 7.46654L37.4323 7.79868C37.361 8.1264 37.2453 8.41868 37.0849 8.67554C36.9246 8.9324 36.7154 9.15382 36.4571 9.33982C36.2077 9.52582 35.9094 9.66754 35.5621 9.76497C35.2148 9.8624 34.8096 9.91111 34.3465 9.91111ZM43.6901 9.91111C43.3071 9.91111 42.9642 9.84025 42.6615 9.69854C42.3587 9.54797 42.1182 9.32654 41.9401 9.03425C41.7709 8.74197 41.6863 8.37882 41.6863 7.94482C41.6863 7.58168 41.7531 7.27168 41.8867 7.01482C42.0292 6.75797 42.2384 6.54982 42.5145 6.3904C42.7906 6.22211 43.1335 6.08482 43.5431 5.97854C43.9528 5.8634 44.4337 5.76597 44.9858 5.68625C45.2886 5.64197 45.5335 5.59768 45.7205 5.5534C45.9165 5.50911 46.059 5.44268 46.148 5.35411C46.2371 5.25671 46.2816 5.115 46.2816 4.929C46.2816 4.65443 46.1836 4.41971 45.9877 4.22486C45.8007 4.02114 45.4935 3.91929 45.066 3.91929C44.8077 3.91929 44.5584 3.96357 44.3179 4.05214C44.0864 4.14072 43.886 4.28243 43.7168 4.47729C43.5476 4.66329 43.4318 4.91129 43.3695 5.22129L41.8599 4.75629C41.9579 4.402 42.1004 4.09643 42.2874 3.83957C42.4744 3.57386 42.706 3.348 42.9821 3.162C43.2581 2.976 43.5743 2.83871 43.9305 2.75014C44.2867 2.66157 44.6786 2.61729 45.1061 2.61729C45.7562 2.61729 46.2905 2.72357 46.7091 2.93614C47.1276 3.13986 47.4393 3.46314 47.6442 3.906C47.849 4.34 47.9514 4.90243 47.9514 5.59325V6.89525C47.9514 7.1964 47.9559 7.51082 47.9648 7.83854C47.9826 8.1574 48.0004 8.48068 48.0182 8.8084C48.0449 9.12725 48.0761 9.43725 48.1117 9.7384H46.6022C46.5666 9.4904 46.5354 9.22468 46.5087 8.94125C46.482 8.65782 46.4597 8.36997 46.4419 8.07768H46.2282C46.1035 8.41425 45.9254 8.72425 45.6938 9.00768C45.4623 9.28225 45.1773 9.50368 44.8389 9.67197C44.5094 9.8314 44.1264 9.91111 43.6901 9.91111ZM44.358 8.67554C44.5361 8.67554 44.7142 8.64454 44.8923 8.58254C45.0793 8.52054 45.2619 8.42754 45.44 8.30354C45.6181 8.17954 45.7829 8.02897 45.9343 7.85182C46.0857 7.66582 46.2148 7.44882 46.3217 7.20082L46.295 6.0184L46.6156 6.07154C46.4642 6.19554 46.2772 6.29297 46.0545 6.36382C45.8319 6.43468 45.5959 6.48782 45.3465 6.52325C45.1061 6.55868 44.8611 6.60297 44.6118 6.65611C44.3713 6.7004 44.1532 6.7624 43.9572 6.84211C43.7613 6.91297 43.6055 7.01925 43.4897 7.16097C43.3739 7.29382 43.316 7.47982 43.316 7.71897C43.316 8.02011 43.414 8.25482 43.6099 8.42311C43.8058 8.5914 44.0552 8.67554 44.358 8.67554ZM54.6054 11.9438V10.0174C54.6054 9.79597 54.6188 9.56568 54.6455 9.32654C54.6811 9.08739 54.7212 8.84382 54.7657 8.59582C54.8102 8.33897 54.8548 8.08654 54.8993 7.83854H54.6588C54.5341 8.24597 54.3694 8.60911 54.1646 8.92797C53.9686 9.23797 53.7148 9.48154 53.4031 9.65868C53.1003 9.82697 52.7129 9.91111 52.2409 9.91111C51.6264 9.91111 51.1099 9.75611 50.6914 9.44611C50.2817 9.12725 49.97 8.69768 49.7563 8.1574C49.5425 7.60825 49.4357 6.98825 49.4357 6.2974C49.4357 5.56225 49.547 4.92014 49.7696 4.371C50.0012 3.82186 50.3351 3.39229 50.7715 3.08229C51.2079 2.77229 51.7378 2.61729 52.3612 2.61729C52.7975 2.61729 53.1716 2.70143 53.4833 2.86971C53.795 3.02914 54.0488 3.26386 54.2447 3.57386C54.4495 3.875 54.592 4.24257 54.6722 4.67657H54.9126L54.8726 2.80329H56.3019V6.25754V11.9438H54.6054ZM52.8287 8.54268C53.0603 8.54268 53.2695 8.4984 53.4566 8.40982C53.6525 8.32125 53.8217 8.20168 53.9642 8.05111C54.1067 7.89168 54.2269 7.71897 54.3249 7.53297C54.4228 7.34697 54.4941 7.15654 54.5386 6.96168C54.592 6.76682 54.6188 6.58082 54.6188 6.40368V6.17782C54.6188 5.93868 54.5787 5.69511 54.4985 5.44711C54.4273 5.19029 54.316 4.95557 54.1646 4.743C54.0221 4.53043 53.8395 4.35772 53.6169 4.22486C53.3942 4.092 53.136 4.02557 52.8421 4.02557C52.5037 4.02557 52.2098 4.11857 51.9604 4.30457C51.72 4.49057 51.5329 4.75186 51.3994 5.08843C51.2658 5.42497 51.199 5.82797 51.199 6.2974C51.199 6.7314 51.2613 7.11668 51.386 7.45325C51.5196 7.78982 51.7066 8.05554 51.9471 8.2504C52.1875 8.44525 52.4814 8.54268 52.8287 8.54268ZM60.5088 9.91111C59.7073 9.91111 59.1017 9.64097 58.6921 9.10068C58.2913 8.55154 58.091 7.7234 58.091 6.61625V2.79H59.7875V6.43025C59.7875 7.12997 59.8944 7.65254 60.1081 7.99797C60.3218 8.3434 60.6513 8.51611 61.0966 8.51611C61.3549 8.51611 61.582 8.45411 61.7779 8.33011C61.9738 8.19725 62.143 8.01568 62.2855 7.7854C62.428 7.54625 62.5393 7.27168 62.6195 6.96168C62.7085 6.65168 62.762 6.31068 62.7798 5.93868V2.79H64.463V6.88197V9.7384H63.0737L63.1004 7.54625H62.8599C62.7442 8.10425 62.5794 8.55597 62.3657 8.9014C62.1608 9.24683 61.907 9.50368 61.6042 9.67197C61.3014 9.8314 60.9363 9.91111 60.5088 9.91111ZM66.3642 9.7384V2.79H68.0474V9.7384H66.3642ZM67.2058 1.70057C66.8674 1.70057 66.6047 1.62971 66.4176 1.488C66.2395 1.33743 66.1505 1.12486 66.1505 0.850286C66.1505 0.575714 66.2395 0.367571 66.4176 0.225857C66.6047 0.0752857 66.8674 0 67.2058 0C67.562 0 67.8292 0.070857 68.0073 0.212571C68.1854 0.354286 68.2745 0.566857 68.2745 0.850286C68.2745 1.12486 68.181 1.33743 67.9939 1.488C67.8158 1.62971 67.5531 1.70057 67.2058 1.70057Z" fill="#D0E02A"/>
<path d="M5.17462 21.0215C5.20342 21.0163 5.23244 21.0122 5.26156 21.0095C6.10404 20.9361 7.35861 21.2958 8.01965 21.8027C8.30076 22.0183 8.62579 22.3262 8.92522 22.5668C8.88055 22.221 8.796 21.6853 9.01834 21.3956C9.39699 21.2345 11.3986 21.3023 11.9349 21.3063C12.0173 21.8124 11.9891 22.8817 11.9885 23.4328L11.9832 27.0859L11.9933 30.5481C11.9994 32.1327 12.1035 33.3811 11.2103 34.7822C10.5543 35.8112 9.35748 36.492 8.1634 36.7508C6.0007 37.2195 3.5561 37.0667 1.62505 35.9515C0.521465 35.3148 0.898687 34.9366 1.44412 34.0742C1.64534 33.6882 1.98259 33.2457 2.24282 32.8951C2.51629 33.0011 2.8603 33.2205 3.10882 33.3887C4.02685 33.9972 5.04471 34.2717 6.15601 34.1864C8.50424 34.0063 8.94508 32.7215 9.06194 30.8103C8.99842 30.894 8.93129 30.9749 8.86064 31.053C8.06644 31.9214 7.14809 32.2739 5.98159 32.3807C2.50943 32.6987 0.160386 30.5264 0.00900159 27.1851C-0.139647 23.9043 1.5515 21.1964 5.17462 21.0215ZM3.17383 26.8938C3.19672 27.6798 3.55232 28.4221 4.1574 28.9473C4.76243 29.4724 5.56392 29.7344 6.3744 29.6718C8.01666 29.545 9.23732 28.1481 9.09261 26.561C8.9479 24.974 7.49331 23.8053 5.85339 23.9583C4.30094 24.1033 3.1298 25.3862 3.17383 26.8938Z" fill="#FEFEFE"/>
<path d="M61.9482 17.0485C62.3953 16.9685 64.4264 17.0074 64.9606 17.0255C65.0115 17.5168 64.9865 18.4809 64.9871 18.9983L64.9887 22.6349L64.9892 28.6907C64.9892 29.1904 65.0534 32.4033 64.8688 32.643C64.4603 32.8446 62.4447 32.7139 61.9158 32.6813C61.91 32.1978 61.9073 31.8463 61.8405 31.3631C60.5218 33.0292 58.147 33.3664 56.2236 32.633C53.1592 31.3577 52.5524 27.7729 53.2754 24.8914C54.0413 21.8403 57.7661 20.2562 60.5398 21.8073C60.9196 22.0197 61.6225 22.5463 61.823 22.9107L61.8341 22.9315C62.0367 22.4322 61.8049 18.0633 61.9482 17.0485ZM59.2853 30.0121C60.9159 29.9073 62.1508 28.5175 62.041 26.9101C61.9312 25.3027 60.5191 24.0883 58.8885 24.1996C57.2633 24.3106 56.0353 25.698 56.1445 27.3008C56.2538 28.9036 57.659 30.1166 59.2853 30.0121Z" fill="#FEFEFE"/>
<path d="M85.7477 21.0054C89.0413 20.8669 91.8298 23.4115 91.9926 26.704C92.1549 29.9965 89.6307 32.8035 86.3397 32.9902C83.0144 33.1787 80.1718 30.6226 80.0074 27.2959C79.8431 23.9692 82.4198 21.1454 85.7477 21.0054ZM86.5447 29.8375C88.1278 29.5377 89.1703 28.0152 88.878 26.4311C88.5856 24.8471 87.0681 23.7971 85.4824 24.0821C83.8868 24.369 82.8282 25.8989 83.1226 27.4935C83.4171 29.088 84.9517 30.1393 86.5447 29.8375Z" fill="#FEFEFE"/>
<path d="M72.7612 21.0048C76.0843 20.8725 78.8808 23.4681 78.9963 26.7915C79.1118 30.115 76.5021 32.8984 73.1785 32.9973C69.8778 33.0954 67.1182 30.5084 67.0037 27.2085C66.8887 23.9086 69.4621 21.1362 72.7612 21.0048ZM73.4969 29.8586C74.538 29.6833 75.4043 28.9618 75.7648 27.9697C76.1254 26.9776 75.924 25.8682 75.2388 25.0655C74.5531 24.2628 73.4886 23.8908 72.4527 24.0917C70.8772 24.397 69.8408 25.9122 70.1265 27.4909C70.4126 29.0697 71.9147 30.125 73.4969 29.8586Z" fill="#FEFEFE"/>
<path d="M23.5097 21.0603C23.5207 21.058 23.5317 21.0558 23.5427 21.0538C24.646 20.8618 26.5723 21.1997 27.4896 21.8093C28.2763 22.332 28.7303 23.1574 28.8995 24.0494C29.0085 24.6244 29.0435 31.5064 28.9301 31.655C28.8497 31.7603 28.6682 31.7907 28.5412 31.8081C28.1429 31.8626 26.3913 31.9093 26.1501 31.7219C25.9373 31.5566 25.9791 30.8551 25.9413 30.5769C25.6429 30.9376 25.2782 31.2426 24.8653 31.4768C23.2513 32.388 20.5075 32.1395 19.507 30.491C19.2714 30.0066 19.1085 29.7314 19.0334 29.198C18.9225 28.4106 19.0807 27.4085 19.6137 26.7779C21.0232 25.1104 23.1346 25.4207 25.1123 25.1949C25.3449 25.1683 25.8674 25.0908 25.998 24.9113C26.1007 24.77 26.0052 24.3994 25.9738 24.2248C25.15 23.3991 23.9522 23.4657 22.894 23.7788C22.3458 23.941 21.8735 24.3982 21.4325 24.7455C21.0752 24.7658 20.2067 24.0939 19.9103 23.8764C19.5367 23.6023 19.2629 23.3322 19.5805 22.9043C20.5484 21.6007 21.9144 21.2117 23.5097 21.0603ZM22.308 27.9984C22.2209 28.2214 22.1468 28.3991 22.0952 28.6347C22.1959 28.9347 22.268 29.1902 22.5162 29.4128C23.912 29.9678 25.3894 29.5493 25.9738 28.093C26.0377 27.9336 26.115 27.2751 25.9479 27.2026C24.9219 27.2943 23.0603 27.3674 22.308 27.9984Z" fill="#FEFEFE"/>
<path d="M36.178 21.029C37.2513 20.87 39.3031 21.3901 40.204 21.9504C40.7515 22.2908 40.9735 22.5974 40.5403 23.1348C40.1356 23.6367 39.7099 24.1156 39.3144 24.6182C39.1005 24.5222 38.6889 24.2649 38.4496 24.1433C37.2769 23.5473 36.5624 23.546 35.2774 23.6743C35.2093 23.727 35.142 23.7805 35.0755 23.835C34.7223 24.126 34.6951 24.5419 35.1525 24.719C36.7451 25.3354 38.8886 25.2558 40.1641 26.4728C41.339 27.5937 41.2552 29.7949 40.0397 30.8828C38.8555 31.9294 37.1035 32.0035 35.5518 31.9999C34.1723 31.9482 31.6691 31.4863 31 30.2153C31.1669 29.9301 32.461 28.0649 32.8655 28.3347C34.1379 29.1834 36.2053 30.0258 37.6825 29.1176C37.6922 28.8525 37.6821 28.6065 37.6723 28.3424C36.4345 27.6146 33.8033 27.735 32.4357 26.5319C31.806 26.022 31.5873 25.3868 31.5415 24.6355C31.3758 21.9153 33.6646 21.1514 36.178 21.029Z" fill="#FEFEFE"/>
<path d="M47.1921 21.0324C48.4577 20.8478 50.7524 21.4763 51.6869 22.2878C52.2693 22.7938 51.3051 23.3298 51.1175 23.6663C50.3096 25.1133 50.0594 24.2916 48.833 23.8638C48.344 23.693 47.8265 23.5987 47.3027 23.5848C46.8634 23.5717 46.2965 23.6234 45.9628 23.913C45.8603 24.0026 45.8025 24.1262 45.8028 24.2552C45.7986 24.8372 46.5918 24.873 47.0625 24.9899C48.4385 25.3316 50.1047 25.4557 51.159 26.4223C51.9539 27.1548 52.0515 28.054 51.9814 29.0318C51.7889 31.7278 48.6914 32.0524 46.4023 31.994C46.2461 31.9878 46.0903 31.9758 45.9351 31.9581C45.0546 31.8547 42.2044 31.3284 42.0002 30.1627C41.9806 30.0505 43.4802 28.0858 43.8315 28.3231C45.1068 29.1848 47.1902 30.004 48.6741 29.1458C48.7875 28.7593 48.8031 28.7075 48.6685 28.3257C47.2318 27.5608 44.8894 27.7848 43.4881 26.5765C42.9429 26.131 42.4905 25.2883 42.4744 24.6014C42.4113 21.9046 44.7341 21.1329 47.1921 21.0324Z" fill="#FEFEFE"/>
<path d="M99.9491 21.0277C100.317 20.9636 101.695 20.9909 101.825 21.325C102.032 21.8625 102.053 23.5906 101.9 24.1176C101.702 24.3357 100.385 24.0724 99.8748 24.1639C97.1981 24.6446 97.1088 26.0358 97.1114 28.2505L97.1187 30.8446C97.1202 31.0929 97.1571 31.6879 97.0101 31.8751C96.6944 32.0496 95.2997 31.9887 94.8194 31.9934C94.6081 31.9971 94.2789 31.9711 94.0593 31.9605C93.9777 31.4335 94.0042 30.5801 94.0037 30.0255L94.0027 26.9353L94.0042 23.4759C94.0047 22.8526 93.9783 21.86 94.0717 21.2656C94.997 21.2602 95.9223 21.2596 96.8476 21.2637C96.9359 21.7682 96.9182 22.2896 96.9208 22.8026C97.7755 21.6396 98.5222 21.322 99.9491 21.0277Z" fill="#FEFEFE"/>
<path d="M14.2504 17.0213C14.7644 17.0162 16.6123 16.9281 16.9174 17.1523C16.9638 17.3388 16.9929 17.658 16.9922 17.9147C16.9783 22.5437 17.0305 27.1898 16.9701 31.8138C16.9689 31.9067 16.8627 31.9397 16.7945 31.9709C16.2879 31.9968 14.5084 32.0531 14.1247 31.8726C13.8624 31.5394 14.1048 18.9519 14.0455 17.47C14.0361 17.2345 14.0985 17.1714 14.2504 17.0213Z" fill="#FEFEFE"/>
</svg>
