<svg width="462" height="219" viewBox="0 0 462 219" fill="none" xmlns="http://www.w3.org/2000/svg">
<g clip-path="url(#clip0_2714_5837)">
<path d="M86.473 78.882C86.3482 80.0495 86.2832 81.2342 86.2832 82.4351V112.488C86.2832 130.657 101.008 145.386 119.173 145.386C130.526 145.386 140.536 139.632 146.447 130.882" stroke="#21C06E" stroke-width="3.8" stroke-linecap="round" stroke-linejoin="round"/>
<path d="M409.728 43.2145C408.561 43.0896 407.376 43.0247 406.176 43.0247H376.131C357.966 43.0247 343.241 57.7536 343.241 75.923C343.241 87.2786 348.993 97.2911 357.742 103.203" stroke="#3FBA7A" stroke-width="3.8" stroke-linecap="round" stroke-linejoin="round"/>
<path d="M227.695 100.381C227.603 99.5336 227.557 122.064 227.557 121.192V84.7051C227.557 71.5121 238.25 60.8164 251.439 60.8164" stroke="#3FBA7A" stroke-width="3.8" stroke-linecap="round" stroke-linejoin="round"/>
<path d="M287.805 18.3025C287.897 19.1501 287.943 11.2847 287.943 12.1567V33.9786C287.943 47.1716 277.25 57.8673 264.061 57.8673" stroke="#0B8C49" stroke-width="3.8" stroke-linecap="round" stroke-linejoin="round"/>
<path d="M110.488 7.8777C110.589 8.82281 110.641 0.0497956 110.641 1.0213V25.3638C110.641 40.0806 98.714 52.0118 84 52.0118" stroke="#0B8C49" stroke-width="3.8" stroke-linecap="round" stroke-linejoin="round"/>
<path d="M347.048 175.909C346.956 175.061 346.91 182.927 346.91 182.055V160.233C346.91 147.04 357.603 136.344 370.792 136.344" stroke="#21C06E" stroke-width="3.8" stroke-linecap="round" stroke-linejoin="round"/>
<path d="M407.16 93.8303C407.251 94.6779 407.298 86.8125 407.298 87.6845V109.506C407.298 122.699 396.605 133.395 383.415 133.395" stroke="#21C06E" stroke-width="3.8" stroke-linecap="round" stroke-linejoin="round"/>
<path d="M321.367 29.5544C321.48 30.6092 321.538 3.05977 321.538 4.14396V49.0577C321.538 65.4728 308.235 78.7795 291.824 78.7795" stroke="#21C06E" stroke-width="3.8" stroke-linecap="round" stroke-linejoin="round"/>
<path d="M444.608 218.308C444.699 217.461 444.746 219.418 444.746 218.547V202.632C444.746 193.764 439.915 186.024 432.742 181.903" stroke="#3FBA7A" stroke-width="3.8" stroke-linecap="round" stroke-linejoin="round"/>
<path d="M152.065 112.487V82.4341C152.065 81.8402 152.05 81.2504 152.019 80.6647" stroke="#0B8C49" stroke-width="3.8" stroke-linecap="round" stroke-linejoin="round"/>
<path d="M101.39 98.7569V112.654C101.39 121.739 108.753 129.104 117.835 129.104C126.917 129.104 134.281 121.739 134.281 112.654V74.9839" stroke="#3FBA7A" stroke-width="3.8" stroke-linecap="round" stroke-linejoin="round"/>
<path d="M278.899 111.345C278.774 112.512 278.709 143.362 278.709 144.562V174.615C278.709 192.784 293.434 207.513 311.599 207.513C322.952 207.513 332.962 201.759 338.872 193.008" stroke="#0B8C49" stroke-width="3.8" stroke-linecap="round" stroke-linejoin="round"/>
<path d="M295.438 155.2V169.097C295.438 178.182 302.801 185.547 311.883 185.547C320.965 185.547 328.328 178.182 328.328 169.097V112.563" stroke="#3FBA7A" stroke-width="3.8" stroke-linecap="round" stroke-linejoin="round"/>
<path d="M218.523 14.4915C217.631 14.3961 177.982 14.3463 177.065 14.3463H154.101C140.217 14.3463 128.961 25.6045 128.961 39.4919C128.961 48.1715 133.358 55.8237 140.045 60.3422" stroke="#3FBA7A" stroke-width="3.8" stroke-linecap="round" stroke-linejoin="round"/>
<path d="M172.37 31.3056H157.573C151.453 31.3056 146.491 36.2687 146.491 42.3911C146.491 48.5136 151.453 53.4767 157.573 53.4767H182.955" stroke="#3FBA7A" stroke-width="3.8" stroke-linecap="round" stroke-linejoin="round"/>
<path d="M198.999 53.4767H205.993C212.114 53.4767 217.076 48.5136 217.076 42.3911C217.076 36.2687 212.114 31.3056 205.993 31.3056H166.764" stroke="#3FBA7A" stroke-width="3.8" stroke-linecap="round" stroke-linejoin="round"/>
<path d="M337.421 -1.00256e-05C337.421 10.8551 346.219 19.6555 357.071 19.6555H402.073" stroke="#0B8C49" stroke-width="3.8" stroke-linecap="round" stroke-linejoin="round"/>
<path d="M421.236 43.2236H428.703C435.238 43.2236 440.535 37.9244 440.535 31.3888C440.535 24.8522 435.237 19.5541 428.703 19.5541H410.443" stroke="#3FBA7A" stroke-width="3.8" stroke-linecap="round" stroke-linejoin="round"/>
<path d="M195.963 173.331H159.692C153.762 173.331 148.954 168.522 148.954 162.59V158.957C148.954 153.025 153.762 148.216 159.692 148.216H195.963C201.894 148.216 206.701 153.025 206.701 158.957V162.59C206.701 168.522 201.894 173.331 195.963 173.331Z" stroke="#0B8C49" stroke-width="3.8" stroke-linecap="round" stroke-linejoin="round"/>
<path d="M385.542 177.128V168.356C385.542 162.425 380.735 157.616 374.804 157.616H374.651C368.721 157.616 363.914 162.425 363.914 168.356V196.634C363.914 202.565 368.721 207.374 374.651 207.374H374.804C380.735 207.374 385.542 202.565 385.542 196.634V188.089" stroke="#3FBA7A" stroke-width="3.8" stroke-linecap="round" stroke-linejoin="round"/>
<path d="M176.754 87.1232V111.85C176.754 117.782 181.562 122.591 187.492 122.591H191.123C197.053 122.591 201.861 117.782 201.861 111.85V87.1232C201.861 81.1916 197.053 76.3828 191.123 76.3828H187.492C181.562 76.3828 176.754 81.1916 176.754 87.1232Z" stroke="#0B8C49" stroke-width="3.8" stroke-linecap="round" stroke-linejoin="round"/>
<path d="M258.87 19.6821C264.902 19.6821 269.791 24.5732 269.791 30.6063C269.791 36.6394 264.902 41.5304 258.87 41.5304C252.839 41.5304 247.949 36.6394 247.949 30.6063V3.33195" stroke="#21C06E" stroke-width="3.8" stroke-linecap="round" stroke-linejoin="round"/>
<path d="M389.313 76.2965C389.313 84.9162 382.327 91.9045 373.709 91.9045C365.092 91.9045 358.105 84.9162 358.105 76.2965C358.105 67.6767 365.092 60.6884 373.709 60.6884H453.882" stroke="#0B8143" stroke-width="3.8" stroke-linecap="round" stroke-linejoin="round"/>
<path d="M461.68 125.711C460.739 125.611 459.784 125.558 458.817 125.558H434.602C419.961 125.558 408.092 137.429 408.092 152.074C408.092 161.227 412.728 169.296 419.78 174.061" stroke="#3FBA7A" stroke-width="3.8" stroke-linecap="round" stroke-linejoin="round"/>
<path d="M448.423 153.466C448.423 160.414 442.792 166.046 435.846 166.046C428.9 166.046 423.27 160.414 423.27 153.466C423.27 146.518 428.9 140.886 435.846 140.886H462" stroke="#0B8143" stroke-width="3.8" stroke-linecap="round" stroke-linejoin="round"/>
<path d="M111.216 170.313V166.774C111.216 159.561 105.371 153.715 98.1602 153.715C90.9493 153.715 85.1045 159.561 85.1045 166.774V195.404C85.1045 202.617 90.9493 208.463 98.1602 208.463C105.371 208.463 111.216 202.617 111.216 195.404" stroke="#3FBA7A" stroke-width="3.8" stroke-linecap="round" stroke-linejoin="round"/>
<path d="M143.845 209.173H147.383C154.594 209.173 160.439 203.327 160.439 196.114C160.439 188.901 154.594 183.055 147.383 183.055H99.5781" stroke="#0B8143" stroke-width="3.8" stroke-linecap="round" stroke-linejoin="round"/>
<path d="M241.613 131.347C230.451 131.347 221.401 140.399 221.401 151.564C221.401 162.73 230.45 171.781 241.613 171.781C252.776 171.781 261.825 162.73 261.825 151.564V93.0912" stroke="#21C06E" stroke-width="3.8" stroke-linecap="round" stroke-linejoin="round"/>
<path d="M241.405 143.988C245.842 143.988 249.439 147.586 249.439 152.024C249.439 156.463 245.842 160.06 241.405 160.06C236.968 160.06 233.371 156.463 233.371 152.024C233.371 147.586 236.968 143.988 241.405 143.988Z" stroke="#0B8C49" stroke-width="3.8" stroke-linecap="round" stroke-linejoin="round"/>
<path d="M295.658 144.642V124.948" stroke="#3FBA7A" stroke-width="3.8" stroke-linecap="round" stroke-linejoin="round"/>
<path d="M420.997 84.8492H461.39" stroke="#0B8143" stroke-width="3.8" stroke-linecap="round" stroke-linejoin="round"/>
<path d="M216.697 207.582H262.976" stroke="#0B8C49" stroke-width="3.8" stroke-linecap="round" stroke-linejoin="round"/>
<path d="M198.604 200.742C198.604 206.775 193.715 211.666 187.683 211.666C181.652 211.666 176.762 206.775 176.762 200.742C176.762 194.709 181.652 189.818 187.683 189.818H243.798" stroke="#21C06E" stroke-width="3.8" stroke-linecap="round" stroke-linejoin="round"/>
<path d="M17.7279 36.2145C16.5608 36.0896 15.3764 36.0247 14.1758 36.0247H-15.8694C-34.0341 36.0247 -48.7593 50.7536 -48.7593 68.923C-48.7593 80.2786 -43.0068 90.2911 -34.2584 96.2034" stroke="#3FBA7A" stroke-width="3.8" stroke-linecap="round" stroke-linejoin="round"/>
<path d="M15.1597 86.8303C15.251 87.6779 15.2977 79.8125 15.2977 80.6845V102.506C15.2977 115.699 4.6047 126.395 -8.58496 126.395" stroke="#21C06E" stroke-width="3.8" stroke-linecap="round" stroke-linejoin="round"/>
<path d="M52.6079 211.308C52.6993 210.461 52.746 212.418 52.746 211.547V195.632C52.746 186.764 47.915 179.024 40.7417 174.903" stroke="#3FBA7A" stroke-width="3.8" stroke-linecap="round" stroke-linejoin="round"/>
<path d="M-54.5791 -7.00001C-54.5791 3.8551 -45.7809 12.6555 -34.9286 12.6555H10.0732" stroke="#0B8C49" stroke-width="3.8" stroke-linecap="round" stroke-linejoin="round"/>
<path d="M29.2364 36.2236H36.703C43.2379 36.2236 48.5347 30.9244 48.5347 24.3888C48.5347 17.8522 43.2369 12.5541 36.703 12.5541H18.4429" stroke="#3FBA7A" stroke-width="3.8" stroke-linecap="round" stroke-linejoin="round"/>
<path d="M-2.68681 69.2965C-2.68681 77.9162 -9.67339 84.9045 -18.2909 84.9045C-26.9084 84.9045 -33.895 77.9162 -33.895 69.2965C-33.895 60.6767 -26.9084 53.6884 -18.2909 53.6884H61.8822" stroke="#0B8143" stroke-width="3.8" stroke-linecap="round" stroke-linejoin="round"/>
<path d="M69.6801 118.711C68.7393 118.611 67.7842 118.558 66.817 118.558H42.6015C27.9605 118.558 16.0923 130.429 16.0923 145.074C16.0923 154.227 20.7283 162.296 27.7799 167.061" stroke="#3FBA7A" stroke-width="3.8" stroke-linecap="round" stroke-linejoin="round"/>
<path d="M56.4229 146.466C56.4229 153.414 50.7922 159.046 43.8462 159.046C36.9002 159.046 31.2695 153.414 31.2695 146.466C31.2695 139.518 36.9002 133.886 43.8462 133.886H70.0002" stroke="#0B8143" stroke-width="3.8" stroke-linecap="round" stroke-linejoin="round"/>
<path d="M28.9971 77.8492H69.3901" stroke="#0B8143" stroke-width="3.8" stroke-linecap="round" stroke-linejoin="round"/>
</g>
<defs>
<clipPath id="clip0_2714_5837">
<rect width="462" height="219" fill="white"/>
</clipPath>
</defs>
</svg>
